<?xml version="1.0" encoding="UTF-8" standalone="no"?>
<!-- Created with Inkscape (http://www.inkscape.org/) -->
<svg
   version="1.1"
   id="svg1"
   width="442.46667"
   height="486.66666"
   viewBox="0 0 442.46667 486.66666"
   sodipodi:docname="iiser-kolkata-seeklogo.eps"
   xmlns:inkscape="http://www.inkscape.org/namespaces/inkscape"
   xmlns:sodipodi="http://sodipodi.sourceforge.net/DTD/sodipodi-0.dtd"
   xmlns="http://www.w3.org/2000/svg" 
   xmlns:svg="http://www.w3.org/2000/svg">
  <defs
     id="defs1" />
  <sodipodi:namedview
     id="namedview1"
     pagecolor="#ffffff"
     bordercolor="#000000"
     borderopacity="0.25"
     inkscape:showpageshadow="2"
     inkscape:pageopacity="0.0"
     inkscape:pagecheckerboard="0"
     inkscape:deskcolor="#d1d1d1">
    <inkscape:page
       x="0"
       y="0"
       inkscape:label="1"
       id="page1"
       width="442.46667"
       height="486.66666"
       margin="0"
       bleed="0" />
  </sodipodi:namedview>
  <g
     id="g1"
     inkscape:groupmode="layer"
     inkscape:label="1">
    <g
       id="group-R5">
      <path
         id="path2"
         d="m 1508.97,2887.63 c 31.06,16.84 61.59,34.64 93.37,50.17 69.05,-41.24 138.75,-82.4 200.45,-134.38 44.74,-39.09 85.23,-85.26 107.73,-140.94 14.93,-37.09 25.37,-77.04 24.46,-117.22 -7.08,-55.98 -24.01,-111.76 -56.76,-158.28 -19.42,30.04 -36.75,61.59 -60.09,88.88 -74.44,91.07 -177.19,153.04 -281.15,205.02 -77.46,38.56 -157.79,70.9 -236.64,106.48 69.81,32.87 140.86,63.25 208.63,100.27 v 0"
         style="fill:#888989;fill-opacity:1;fill-rule:nonzero;stroke:none"
         transform="matrix(0.13333333,0,0,-0.13333333,0,486.66667)" />
      <path
         id="path3"
         d="m 666.34,2552.91 c 7.914,-29.86 12.625,-60.61 23.781,-89.52 8.598,-22.62 19.149,-44.48 30.762,-65.74 48.734,-82.1 118.055,-149.98 193.816,-207.2 50.133,-37.69 103.051,-71.69 158.091,-101.77 71.05,-36.53 146.02,-64.38 219.37,-95.82 -137.99,-58.01 -277.46,-115.04 -404.035,-195.93 -66.793,37.32 -135.281,71.92 -206.406,100.26 -67.961,26.47 -138.11,49.87 -211.121,56.7 -61.856,6.03 -124.239,8.66 -186.321,5.31 -60.875,-2.45 -122.199,-6.75 -181.379,-21.98 -1.054,-408.36 0,-816.73 -0.527,-1225.138 -0.039,-13.383 0.301,-26.844 0.828,-40.301 338.375,0.231 676.785,-0.64 1015.161,0.457 -118.1,51 -234.872,109.723 -332.872,194.313 -46.101,39.84 -87.863,85.937 -116.285,140.179 -18.207,34.45 -30.078,72.48 -32.191,111.53 8.332,58.39 21.336,117.57 52.695,168.34 13.344,-22.77 25.031,-46.66 41.086,-67.81 39.992,-53.86 92.125,-97.32 146.402,-136.19 100.453,-71.16 210.365,-127.631 321.335,-180.362 71.43,-33.398 143.61,-65.168 216.06,-96.269 7.12,-3.129 14.1,-6.707 20.96,-10.477 -25.9,-12.133 -53.19,-20.953 -79.65,-31.812 -79,-31.289 -157.11,-64.91 -236.41,-95.442 -73.09,-28.679 -146.138,-57.328 -219.189,-86.019 -16.399,-6.18 -32.492,-15.11 -50.473,-14.809 -283.113,0.418 -566.226,-0.488 -849.343625,0.449 -0.828125,481.611 -0.375,963.221 -0.226562,1444.861 76.593787,35.62 161.629187,47.99 245.195187,53.6 106.445,5.39 213.57,-2.48 318.133,-23.29 70.637,-13.49 138.977,-37.28 204.184,-67.32 22.957,-9.69 44.214,-23.07 67.738,-31.44 -15.719,15.12 -34.528,26.39 -50.512,41.16 -51.223,43.28 -92.535,100.57 -109.16,166.16 -16.547,59.06 -8.934,120.88 -10.141,181.3 -0.449,35.21 -2.937,70.38 -0.523,105.54 0.262,38.15 -3.242,76.45 1.168,114.48 v 0"
         style="fill:#888989;fill-opacity:1;fill-rule:nonzero;stroke:none"
         transform="matrix(0.13333333,0,0,-0.13333333,0,486.66667)" />
      <path
         id="path4"
         d="m 1878.22,2386.98 c 32.75,46.52 49.68,102.3 56.76,158.28 3.32,-13.99 4.3,-28.39 4.07,-42.75 -0.26,-85.41 0.76,-170.86 -1.24,-256.28 0.53,-46.55 -5.69,-93.85 -24.01,-136.94 -22.24,-53.67 -61.44,-98.75 -106.3,-134.94 -60.08,-49.56 -129.92,-84.96 -197.77,-122.39 -57.49,-28.72 -112.44,-62.3 -170.68,-89.59 -43.46,-21.57 -88.46,-39.77 -132,-61.22 -137.24,-59.67 -275.69,-119.07 -401.737,-200.6 -84.735,-56.01 -165.848,-123.83 -215.606,-213.95 -31.359,-50.77 -44.363,-109.95 -52.695,-168.34 -3.504,32.87 -0.489,65.97 -2.637,98.91 -2.301,43.99 3.805,87.9 0.902,131.85 -1.582,59.14 -3.543,119.86 15.004,176.82 17.981,57.44 51.715,108.9 92.614,152.58 42.82,45.84 92.687,84.55 145.23,118.51 126.575,80.89 266.045,137.92 404.035,195.93 101.62,41.61 205.81,79.38 299.7,137.24 54.05,32.49 106.67,67.77 154.77,108.71 50.66,42.59 97.93,90.8 131.59,148.17"
         style="fill:#4a72c1;fill-opacity:1;fill-rule:nonzero;stroke:none"
         transform="matrix(0.13333333,0,0,-0.13333333,0,486.66667)" />
      <path
         id="path5"
         d="m 2259.41,2306.54 c 62.65,23.03 132.3,21.49 196.04,3.74 97.33,-27.18 183.91,-84.81 256.13,-154.43 -58.95,-13.42 -116.25,-38.68 -160.5,-80.63 -55.56,-50.58 -91.82,-118.55 -117.19,-188.43 -50.13,-141.2 -64.98,-291.29 -85.34,-438.82 -12.66,-92.32 -24.95,-185.38 -52.77,-274.6 -16.36,-54.51 -43.8,-104.83 -72.93,-153.41 -57.45,-94.948 -134.08,-178.972 -226.35,-241.05 -55.45,-37.051 -115.98,-66.148 -178.52,-89.07 -20.24,-7.731 -41.27,-13.34 -61.17,-21.981 38.07,0.231 76.18,0.61 114.25,1.891 24.76,0.602 50.17,-1.738 74.21,5.77 110.45,32.98 207.02,102.671 283.72,187.601 84.36,92.758 147.72,203.349 192.61,320.049 56.43,145.8 71.77,302.98 117.19,451.98 18.7,60.8 41.47,121.56 79.16,173.39 29.97,41.16 71.05,76.1 120.54,90.77 68.11,20.24 143.43,12.28 207.2,-18.44 56.96,-26.42 107.43,-66.6 146.59,-115.56 -113.04,-34.68 -205.24,-122.21 -256.5,-227.52 -26.57,-50.28 -41.01,-105.54 -59.41,-159.07 -41.19,-127.06 -79.98,-255.9 -141.08,-375.23 -44.33,-87.72 -101.32,-170.299 -175.65,-235.291 -46.21,-41.379 -98.95,-75.308 -155.6,-100.519 37.96,-0.309 75.95,1.582 113.95,2.449 20.39,-0.309 37.61,11.762 55.18,20.43 89.94,48.511 159.33,127.363 213.12,212.929 49.26,79.571 89.33,164.682 120.65,252.802 18.66,51.08 36.38,102.57 58.32,152.36 23.44,51.45 49.75,103.13 90.5,143.24 33.69,35.24 79.98,58.99 128.95,62.42 56.27,4.1 116.92,-4.9 162.27,-40.94 29.96,-23.67 53.07,-55.22 71.5,-88.43 -55.97,-15.6 -107.54,-45.72 -148.59,-86.88 -63.13,-62.72 -105.46,-142.33 -144.1,-221.56 -47.83,-97.102 -89.18,-197.93 -148.47,-288.918 -48.02,-74.562 -111.76,-141.992 -193.29,-179.613 -60.62,-28.457 -128.05,-39.239 -194.65,-38.821 -62.72,-3.316 -125.6,-0.187 -188.32,-2.976 -304.15,-0.274 -608.26,0 -912.37,-0.043 -87.9,2.641 -175.87,0.68 -263.81,1.359 -30.91,0.672 -61.89,-1.547 -92.73,1.391 12.97,7.621 27.18,12.672 41.24,17.68 154.73,58.421 312.93,108.25 463.29,177.652 121.07,56.09 237.54,126.461 331.47,222.309 34.45,36.34 67.29,74.79 93.29,117.72 39.81,67.73 57.86,145.72 66.34,223.14 21.79,206.68 -13.38,414.44 6.22,621.23 6.94,69.51 21.75,139.28 53.38,202.03 36.03,70.3 97.43,128.5 172.03,155.9 v 0"
         style="fill:#888989;fill-opacity:1;fill-rule:nonzero;stroke:none"
         transform="matrix(0.13333333,0,0,-0.13333333,0,486.66667)" />
      <path
         id="path6"
         d="m 1439.05,1762.37 c 58.24,27.29 113.2,60.87 170.68,89.59 101.09,-57.1 197.96,-128.91 260.76,-228.38 47.04,-73.77 71.58,-160.95 73.62,-248.17 3.31,-53.68 -4.94,-107.81 -22.28,-158.62 -16.1,36.19 -31.89,72.83 -55.03,105.24 -73.05,106.26 -182.67,179.65 -293.41,241.88 -70.67,39.8 -143.12,76.4 -216.13,111.76 -16.7,8.56 -34.11,15.79 -50.21,25.48 43.54,21.45 88.54,39.65 132,61.22 v 0"
         style="fill:#888989;fill-opacity:1;fill-rule:nonzero;stroke:none"
         transform="matrix(0.13333333,0,0,-0.13333333,0,486.66667)" />
      <path
         id="path7"
         d="m 1268.38,1557.12 c 36.56,4.15 74.18,3.81 110.02,-5.39 70.83,-17.56 134.68,-62.83 173.43,-124.84 38.26,-58.99 53.41,-132.56 41.31,-201.84 -18.02,-116.32 -114.92,-214.63 -230.72,-235.019 -64.49,-11.871 -133.13,-1.582 -190.5,30.529 -54.84,30.19 -99.62,78.4 -124.88,135.77 -29.97,66.38 -32.53,144.33 -7.99,212.82 34.41,98.45 125.97,173.65 229.33,187.98 v -0.01"
         style="fill:#100f0d;fill-opacity:1;fill-rule:nonzero;stroke:none"
         transform="matrix(0.13333333,0,0,-0.13333333,0,486.66667)" />
      <path
         id="path20"
         d="m 1908.82,3491.73 c 32.76,46.51 49.68,102.3 56.77,158.27 3.31,-13.98 4.29,-28.38 4.07,-42.74 -0.27,-85.42 0.75,-170.87 -1.25,-256.28 0.53,-46.55 -5.69,-93.86 -24.01,-136.94 -22.23,-53.68 -61.44,-98.76 -106.29,-134.94 -60.08,-49.57 -129.93,-84.96 -197.78,-122.39 -57.48,-28.73 -112.44,-62.31 -170.67,-89.6 -43.46,-21.56 -88.47,-39.77 -132.01,-61.22 -137.24,-59.66 -275.68,-119.07 -401.732,-200.6 -84.734,-56.01 -165.852,-123.82 -215.605,-213.95 -31.36,-50.77 -44.364,-109.95 -52.696,-168.33 -3.504,32.86 -0.488,65.96 -2.637,98.9 -2.3,43.99 3.805,87.9 0.903,131.85 -1.582,59.14 -3.543,119.87 15.004,176.82 17.976,57.45 51.715,108.9 92.609,152.59 42.82,45.83 92.692,84.54 145.234,118.51 126.57,80.88 266.04,137.91 404.04,195.93 101.62,41.61 205.8,79.37 299.7,137.23 54.05,32.5 106.67,67.78 154.76,108.71 50.66,42.59 97.93,90.81 131.59,148.18 v 0"
         style="fill:#4a72c1;fill-opacity:1;fill-rule:nonzero;stroke:none"
         transform="matrix(0.13333333,0,0,-0.13333333,0,486.66667)" />
    </g>
  </g>
  <text x="-5" y="470" font-size="50" font-weight="bold" font-family="NEW ACADEMY">IISER</text>
  <text x="170" y="470" font-size="50" font-family="NEW ACADEMY" font-weight="normal">KOLKATA</text>
</svg>
